{"asset":{"version":"2.0","generator":"gltfpack 1.2"},"buffers":[{"uri":"../import/BullDancer.bin","byteLength":3406860}],"bufferViews":[{"buffer":0,"byteOffset":0,"byteLength":179980,"byteStride":4,"target":34962},{"buffer":0,"byteOffset":179980,"byteLength":539940,"byteStride":12,"target":34962},{"buffer":0,"byteOffset":719920,"byteLength":539940,"byteStride":12,"target":34962},{"buffer":0,"byteOffset":1259860,"byteLength":359960,"byteStride":8,"target":34962},{"buffer":0,"byteOffset":2222428,"byteLength":719920,"byteStride":16,"target":34962},{"buffer":0,"byteOffset":1619820,"byteLength":576630,"target":34963},{"buffer":0,"byteOffset":2196452,"byteLength":3456},{"buffer":0,"byteOffset":2199908,"byteLength":136},{"buffer":0,"byteOffset":2200044,"byteLength":396},{"buffer":0,"byteOffset":2942348,"byteLength":464512,"byteStride":16},{"buffer":0,"byteOffset":2200440,"byteLength":12},{"buffer":0,"byteOffset":2200452,"byteLength":3224},{"buffer":0,"byteOffset":2203676,"byteLength":9660},{"buffer":0,"byteOffset":0,"byteLength":4},{"buffer":0,"byteOffset":2213336,"byteLength":12},{"buffer":0,"byteOffset":2213348,"byteLength":2264},{"buffer":0,"byteOffset":2215612,"byteLength":6792},{"buffer":0,"byteOffset":0,"byteLength":4},{"buffer":0,"byteOffset":2222404,"byteLength":24}],"accessors":[{"bufferView":0,"byteOffset":0,"componentType":5121,"count":44995,"type":"VEC4"},{"bufferView":1,"byteOffset":0,"componentType":5126,"count":44995,"type":"VEC3"},{"bufferView":2,"byteOffset":0,"componentType":5126,"count":44995,"type":"VEC3","min":[-0.00773073221,0.000106430052,-0.00396334426],"max":[0.00718841795,0.0181184411,0.00326609937]},{"bufferView":3,"byteOffset":0,"componentType":5126,"count":44995,"type":"VEC2"},{"bufferView":4,"byteOffset":0,"componentType":5126,"count":44995,"type":"VEC4"},{"bufferView":5,"byteOffset":0,"componentType":5123,"count":288315,"type":"SCALAR"},{"bufferView":6,"byteOffset":0,"componentType":5126,"count":54,"type":"MAT4"},{"bufferView":7,"byteOffset":0,"componentType":5126,"count":33,"type":"SCALAR","min":[0],"max":[1.06666672]},{"bufferView":7,"byteOffset":132,"componentType":5126,"count":1,"type":"SCALAR","min":[0],"max":[0]},{"bufferView":8,"byteOffset":0,"componentType":5126,"count":33,"type":"VEC3"},{"bufferView":9,"byteOffset":0,"componentType":5126,"count":33,"type":"VEC4"},{"bufferView":10,"byteOffset":0,"componentType":5126,"count":1,"type":"VEC3"},{"bufferView":9,"byteOffset":528,"componentType":5126,"count":33,"type":"VEC4"},{"bufferView":9,"byteOffset":1056,"componentType":5126,"count":33,"type":"VEC4"},{"bufferView":9,"byteOffset":1584,"componentType":5126,"count":33,"type":"VEC4"},{"bufferView":9,"byteOffset":2112,"componentType":5126,"count":33,"type":"VEC4"},{"bufferView":9,"byteOffset":2640,"componentType":5126,"count":33,"type":"VEC4"},{"bufferView":9,"byteOffset":3168,"componentType":5126,"count":33,"type":"VEC4"},{"bufferView":9,"byteOffset":3696,"componentType":5126,"count":33,"type":"VEC4"},{"bufferView":9,"byteOffset":4224,"componentType":5126,"count":33,"type":"VEC4"},{"bufferView":9,"byteOffset":4752,"componentType":5126,"count":33,"type":"VEC4"},{"bufferView":9,"byteOffset":5280,"componentType":5126,"count":33,"type":"VEC4"},{"bufferView":9,"byteOffset":5808,"componentType":5126,"count":33,"type":"VEC4"},{"bufferView":9,"byteOffset":6336,"componentType":5126,"count":33,"type":"VEC4"},{"bufferView":9,"byteOffset":6864,"componentType":5126,"count":33,"type":"VEC4"},{"bufferView":9,"byteOffset":7392,"componentType":5126,"count":33,"type":"VEC4"},{"bufferView":9,"byteOffset":7920,"componentType":5126,"count":33,"type":"VEC4"},{"bufferView":9,"byteOffset":8448,"componentType":5126,"count":33,"type":"VEC4"},{"bufferView":9,"byteOffset":8976,"componentType":5126,"count":33,"type":"VEC4"},{"bufferView":9,"byteOffset":9504,"componentType":5126,"count":33,"type":"VEC4"},{"bufferView":9,"byteOffset":10032,"componentType":5126,"count":33,"type":"VEC4"},{"bufferView":9,"byteOffset":10560,"componentType":5126,"count":33,"type":"VEC4"},{"bufferView":9,"byteOffset":11088,"componentType":5126,"count":1,"type":"VEC4"},{"bufferView":9,"byteOffset":11104,"componentType":5126,"count":33,"type":"VEC4"},{"bufferView":9,"byteOffset":11632,"componentType":5126,"count":33,"type":"VEC4"},{"bufferView":9,"byteOffset":12160,"componentType":5126,"count":33,"type":"VEC4"},{"bufferView":9,"byteOffset":12688,"componentType":5126,"count":33,"type":"VEC4"},{"bufferView":9,"byteOffset":13216,"componentType":5126,"count":33,"type":"VEC4"},{"bufferView":9,"byteOffset":13744,"componentType":5126,"count":33,"type":"VEC4"},{"bufferView":9,"byteOffset":14272,"componentType":5126,"count":33,"type":"VEC4"},{"bufferView":9,"byteOffset":14800,"componentType":5126,"count":33,"type":"VEC4"},{"bufferView":9,"byteOffset":15328,"componentType":5126,"count":33,"type":"VEC4"},{"bufferView":9,"byteOffset":15856,"componentType":5126,"count":33,"type":"VEC4"},{"bufferView":9,"byteOffset":16384,"componentType":5126,"count":33,"type":"VEC4"},{"bufferView":9,"byteOffset":16912,"componentType":5126,"count":33,"type":"VEC4"},{"bufferView":9,"byteOffset":17440,"componentType":5126,"count":33,"type":"VEC4"},{"bufferView":9,"byteOffset":17968,"componentType":5126,"count":33,"type":"VEC4"},{"bufferView":9,"byteOffset":18496,"componentType":5126,"count":33,"type":"VEC4"},{"bufferView":9,"byteOffset":19024,"componentType":5126,"count":33,"type":"VEC4"},{"bufferView":9,"byteOffset":19552,"componentType":5126,"count":33,"type":"VEC4"},{"bufferView":9,"byteOffset":20080,"componentType":5126,"count":33,"type":"VEC4"},{"bufferView":9,"byteOffset":20608,"componentType":5126,"count":33,"type":"VEC4"},{"bufferView":9,"byteOffset":21136,"componentType":5126,"count":33,"type":"VEC4"},{"bufferView":9,"byteOffset":21664,"componentType":5126,"count":33,"type":"VEC4"},{"bufferView":9,"byteOffset":22192,"componentType":5126,"count":33,"type":"VEC4"},{"bufferView":9,"byteOffset":22720,"componentType":5126,"count":33,"type":"VEC4"},{"bufferView":9,"byteOffset":23248,"componentType":5126,"count":33,"type":"VEC4"},{"bufferView":9,"byteOffset":23776,"componentType":5126,"count":33,"type":"VEC4"},{"bufferView":9,"byteOffset":24304,"componentType":5126,"count":33,"type":"VEC4"},{"bufferView":9,"byteOffset":24832,"componentType":5126,"count":1,"type":"VEC4"},{"bufferView":9,"byteOffset":24848,"componentType":5126,"count":33,"type":"VEC4"},{"bufferView":11,"byteOffset":0,"componentType":5126,"count":805,"type":"SCALAR","min":[0],"max":[26.8000011]},{"bufferView":12,"byteOffset":0,"componentType":5126,"count":805,"type":"VEC3"},{"bufferView":9,"byteOffset":25376,"componentType":5126,"count":805,"type":"VEC4"},{"bufferView":11,"byteOffset":3220,"componentType":5126,"count":1,"type":"SCALAR","min":[0],"max":[0]},{"bufferView":14,"byteOffset":0,"componentType":5126,"count":1,"type":"VEC3"},{"bufferView":9,"byteOffset":38256,"componentType":5126,"count":805,"type":"VEC4"},{"bufferView":9,"byteOffset":51136,"componentType":5126,"count":1,"type":"VEC4"},{"bufferView":9,"byteOffset":51152,"componentType":5126,"count":1,"type":"VEC4"},{"bufferView":9,"byteOffset":51168,"componentType":5126,"count":1,"type":"VEC4"},{"bufferView":9,"byteOffset":51184,"componentType":5126,"count":805,"type":"VEC4"},{"bufferView":9,"byteOffset":64064,"componentType":5126,"count":1,"type":"VEC4"},{"bufferView":9,"byteOffset":64080,"componentType":5126,"count":1,"type":"VEC4"},{"bufferView":9,"byteOffset":64096,"componentType":5126,"count":1,"type":"VEC4"},{"bufferView":9,"byteOffset":64112,"componentType":5126,"count":1,"type":"VEC4"},{"bufferView":9,"byteOffset":64128,"componentType":5126,"count":1,"type":"VEC4"},{"bufferView":9,"byteOffset":64144,"componentType":5126,"count":805,"type":"VEC4"},{"bufferView":9,"byteOffset":77024,"componentType":5126,"count":805,"type":"VEC4"},{"bufferView":9,"byteOffset":89904,"componentType":5126,"count":805,"type":"VEC4"},{"bufferView":9,"byteOffset":102784,"componentType":5126,"count":805,"type":"VEC4"},{"bufferView":9,"byteOffset":115664,"componentType":5126,"count":805,"type":"VEC4"},{"bufferView":9,"byteOffset":128544,"componentType":5126,"count":1,"type":"VEC4"},{"bufferView":9,"byteOffset":128560,"componentType":5126,"count":1,"type":"VEC4"},{"bufferView":9,"byteOffset":128576,"componentType":5126,"count":1,"type":"VEC4"},{"bufferView":9,"byteOffset":128592,"componentType":5126,"count":1,"type":"VEC4"},{"bufferView":9,"byteOffset":128608,"componentType":5126,"count":1,"type":"VEC4"},{"bufferView":9,"byteOffset":128624,"componentType":5126,"count":1,"type":"VEC4"},{"bufferView":9,"byteOffset":128640,"componentType":5126,"count":805,"type":"VEC4"},{"bufferView":9,"byteOffset":141520,"componentType":5126,"count":1,"type":"VEC4"},{"bufferView":9,"byteOffset":141536,"componentType":5126,"count":1,"type":"VEC4"},{"bufferView":9,"byteOffset":141552,"componentType":5126,"count":1,"type":"VEC4"},{"bufferView":9,"byteOffset":141568,"componentType":5126,"count":1,"type":"VEC4"},{"bufferView":9,"byteOffset":141584,"componentType":5126,"count":1,"type":"VEC4"},{"bufferView":9,"byteOffset":141600,"componentType":5126,"count":805,"type":"VEC4"},{"bufferView":9,"byteOffset":154480,"componentType":5126,"count":1,"type":"VEC4"},{"bufferView":9,"byteOffset":154496,"componentType":5126,"count":805,"type":"VEC4"},{"bufferView":9,"byteOffset":167376,"componentType":5126,"count":805,"type":"VEC4"},{"bufferView":9,"byteOffset":180256,"componentType":5126,"count":805,"type":"VEC4"},{"bufferView":9,"byteOffset":193136,"componentType":5126,"count":805,"type":"VEC4"},{"bufferView":9,"byteOffset":206016,"componentType":5126,"count":805,"type":"VEC4"},{"bufferView":9,"byteOffset":218896,"componentType":5126,"count":805,"type":"VEC4"},{"bufferView":9,"byteOffset":231776,"componentType":5126,"count":805,"type":"VEC4"},{"bufferView":9,"byteOffset":244656,"componentType":5126,"count":805,"type":"VEC4"},{"bufferView":9,"byteOffset":257536,"componentType":5126,"count":805,"type":"VEC4"},{"bufferView":9,"byteOffset":270416,"componentType":5126,"count":805,"type":"VEC4"},{"bufferView":15,"byteOffset":0,"componentType":5126,"count":565,"type":"SCALAR","min":[0],"max":[18.8000011]},{"bufferView":16,"byteOffset":0,"componentType":5126,"count":565,"type":"VEC3"},{"bufferView":9,"byteOffset":283296,"componentType":5126,"count":565,"type":"VEC4"},{"bufferView":15,"byteOffset":2260,"componentType":5126,"count":1,"type":"SCALAR","min":[0],"max":[0]},{"bufferView":18,"byteOffset":0,"componentType":5126,"count":1,"type":"VEC3"},{"bufferView":9,"byteOffset":292336,"componentType":5126,"count":565,"type":"VEC4"},{"bufferView":9,"byteOffset":301376,"componentType":5126,"count":1,"type":"VEC4"},{"bufferView":9,"byteOffset":301392,"componentType":5126,"count":1,"type":"VEC4"},{"bufferView":9,"byteOffset":301408,"componentType":5126,"count":1,"type":"VEC4"},{"bufferView":9,"byteOffset":301424,"componentType":5126,"count":1,"type":"VEC4"},{"bufferView":9,"byteOffset":301440,"componentType":5126,"count":1,"type":"VEC4"},{"bufferView":9,"byteOffset":301456,"componentType":5126,"count":1,"type":"VEC4"},{"bufferView":9,"byteOffset":301472,"componentType":5126,"count":1,"type":"VEC4"},{"bufferView":9,"byteOffset":301488,"componentType":5126,"count":565,"type":"VEC4"},{"bufferView":9,"byteOffset":310528,"componentType":5126,"count":1,"type":"VEC4"},{"bufferView":9,"byteOffset":310544,"componentType":5126,"count":1,"type":"VEC4"},{"bufferView":9,"byteOffset":310560,"componentType":5126,"count":1,"type":"VEC4"},{"bufferView":9,"byteOffset":310576,"componentType":5126,"count":1,"type":"VEC4"},{"bufferView":9,"byteOffset":310592,"componentType":5126,"count":1,"type":"VEC4"},{"bufferView":9,"byteOffset":310608,"componentType":5126,"count":565,"type":"VEC4"},{"bufferView":9,"byteOffset":319648,"componentType":5126,"count":565,"type":"VEC4"},{"bufferView":9,"byteOffset":328688,"componentType":5126,"count":565,"type":"VEC4"},{"bufferView":9,"byteOffset":337728,"componentType":5126,"count":565,"type":"VEC4"},{"bufferView":9,"byteOffset":346768,"componentType":5126,"count":565,"type":"VEC4"},{"bufferView":9,"byteOffset":355808,"componentType":5126,"count":1,"type":"VEC4"},{"bufferView":18,"byteOffset":12,"componentType":5126,"count":1,"type":"VEC3"},{"bufferView":9,"byteOffset":355824,"componentType":5126,"count":1,"type":"VEC4"},{"bufferView":9,"byteOffset":355840,"componentType":5126,"count":1,"type":"VEC4"},{"bufferView":9,"byteOffset":355856,"componentType":5126,"count":1,"type":"VEC4"},{"bufferView":9,"byteOffset":355872,"componentType":5126,"count":1,"type":"VEC4"},{"bufferView":9,"byteOffset":355888,"componentType":5126,"count":1,"type":"VEC4"},{"bufferView":9,"byteOffset":355904,"componentType":5126,"count":565,"type":"VEC4"},{"bufferView":9,"byteOffset":364944,"componentType":5126,"count":1,"type":"VEC4"},{"bufferView":9,"byteOffset":364960,"componentType":5126,"count":1,"type":"VEC4"},{"bufferView":9,"byteOffset":364976,"componentType":5126,"count":1,"type":"VEC4"},{"bufferView":9,"byteOffset":364992,"componentType":5126,"count":1,"type":"VEC4"},{"bufferView":9,"byteOffset":365008,"componentType":5126,"count":1,"type":"VEC4"},{"bufferView":9,"byteOffset":365024,"componentType":5126,"count":1,"type":"VEC4"},{"bufferView":9,"byteOffset":365040,"componentType":5126,"count":565,"type":"VEC4"},{"bufferView":9,"byteOffset":374080,"componentType":5126,"count":1,"type":"VEC4"},{"bufferView":9,"byteOffset":374096,"componentType":5126,"count":565,"type":"VEC4"},{"bufferView":9,"byteOffset":383136,"componentType":5126,"count":565,"type":"VEC4"},{"bufferView":9,"byteOffset":392176,"componentType":5126,"count":565,"type":"VEC4"},{"bufferView":9,"byteOffset":401216,"componentType":5126,"count":565,"type":"VEC4"},{"bufferView":9,"byteOffset":410256,"componentType":5126,"count":565,"type":"VEC4"},{"bufferView":9,"byteOffset":419296,"componentType":5126,"count":565,"type":"VEC4"},{"bufferView":9,"byteOffset":428336,"componentType":5126,"count":565,"type":"VEC4"},{"bufferView":16,"byteOffset":6780,"componentType":5126,"count":1,"type":"VEC3"},{"bufferView":9,"byteOffset":437376,"componentType":5126,"count":565,"type":"VEC4"},{"bufferView":9,"byteOffset":446416,"componentType":5126,"count":565,"type":"VEC4"},{"bufferView":9,"byteOffset":455456,"componentType":5126,"count":565,"type":"VEC4"},{"bufferView":9,"byteOffset":464496,"componentType":5126,"count":1,"type":"VEC4"}],"samplers":[{}],"images":[{"name":"Image_0.png","uri":"BullAlbedo.jpg"}],"textures":[{"sampler":0,"source":0}],"materials":[{"name":"defaultMat","pbrMetallicRoughness":{"baseColorTexture":{"index":0},"metallicFactor":0.400000006,"roughnessFactor":0.89442718}}],"meshes":[{"primitives":[{"attributes":{"JOINTS_0":0,"NORMAL":1,"POSITION":2,"TEXCOORD_0":3,"WEIGHTS_0":4},"indices":5,"material":0}]}],"skins":[{"joints":[2,3,52,34,35,36,38,39,40,4,42,43,44,46,47,48,49,6,7,5,8,9,10,11,12,13,14,15,16,30,18,19,20,21,22,23,24,25,26,27,31,28,54,55,57,58,59,60,61,32,62,33,50,51],"inverseBindMatrices":6,"skeleton":2}],"animations":[{"name":"IdleSway","samplers":[{"input":7,"output":9},{"input":7,"output":10},{"input":8,"output":11},{"input":7,"output":12},{"input":7,"output":13},{"input":7,"output":14},{"input":7,"output":15},{"input":7,"output":16},{"input":7,"output":17},{"input":7,"output":18},{"input":7,"output":19},{"input":7,"output":20},{"input":7,"output":21},{"input":7,"output":22},{"input":7,"output":23},{"input":7,"output":24},{"input":7,"output":25},{"input":7,"output":26},{"input":7,"output":27},{"input":7,"output":28},{"input":7,"output":29},{"input":7,"output":30},{"input":7,"output":31},{"input":8,"output":32},{"input":7,"output":33},{"input":7,"output":34},{"input":7,"output":35},{"input":7,"output":36},{"input":7,"output":37},{"input":7,"output":38},{"input":7,"output":39},{"input":7,"output":40},{"input":7,"output":41},{"input":7,"output":42},{"input":7,"output":43},{"input":7,"output":44},{"input":7,"output":45},{"input":7,"output":46},{"input":7,"output":47},{"input":7,"output":48},{"input":7,"output":49},{"input":7,"output":50},{"input":7,"output":51},{"input":7,"output":52},{"input":7,"output":53},{"input":7,"output":54},{"input":7,"output":55},{"input":7,"output":56},{"input":7,"output":57},{"input":7,"output":58},{"input":8,"output":59},{"input":7,"output":60}],"channels":[{"sampler":0,"target":{"node":2,"path":"translation"}},{"sampler":1,"target":{"node":2,"path":"rotation"}},{"sampler":2,"target":{"node":2,"path":"scale"}},{"sampler":3,"target":{"node":3,"path":"rotation"}},{"sampler":4,"target":{"node":52,"path":"rotation"}},{"sampler":5,"target":{"node":34,"path":"rotation"}},{"sampler":6,"target":{"node":35,"path":"rotation"}},{"sampler":7,"target":{"node":36,"path":"rotation"}},{"sampler":8,"target":{"node":38,"path":"rotation"}},{"sampler":9,"target":{"node":39,"path":"rotation"}},{"sampler":10,"target":{"node":40,"path":"rotation"}},{"sampler":11,"target":{"node":4,"path":"rotation"}},{"sampler":12,"target":{"node":42,"path":"rotation"}},{"sampler":13,"target":{"node":43,"path":"rotation"}},{"sampler":14,"target":{"node":44,"path":"rotation"}},{"sampler":15,"target":{"node":46,"path":"rotation"}},{"sampler":16,"target":{"node":47,"path":"rotation"}},{"sampler":17,"target":{"node":48,"path":"rotation"}},{"sampler":18,"target":{"node":6,"path":"rotation"}},{"sampler":19,"target":{"node":7,"path":"rotation"}},{"sampler":20,"target":{"node":5,"path":"rotation"}},{"sampler":21,"target":{"node":8,"path":"rotation"}},{"sampler":22,"target":{"node":9,"path":"rotation"}},{"sampler":23,"target":{"node":10,"path":"rotation"}},{"sampler":24,"target":{"node":11,"path":"rotation"}},{"sampler":25,"target":{"node":12,"path":"rotation"}},{"sampler":26,"target":{"node":14,"path":"rotation"}},{"sampler":27,"target":{"node":15,"path":"rotation"}},{"sampler":28,"target":{"node":16,"path":"rotation"}},{"sampler":29,"target":{"node":30,"path":"rotation"}},{"sampler":30,"target":{"node":18,"path":"rotation"}},{"sampler":31,"target":{"node":19,"path":"rotation"}},{"sampler":32,"target":{"node":20,"path":"rotation"}},{"sampler":33,"target":{"node":22,"path":"rotation"}},{"sampler":34,"target":{"node":23,"path":"rotation"}},{"sampler":35,"target":{"node":24,"path":"rotation"}},{"sampler":36,"target":{"node":26,"path":"rotation"}},{"sampler":37,"target":{"node":27,"path":"rotation"}},{"sampler":38,"target":{"node":31,"path":"rotation"}},{"sampler":39,"target":{"node":28,"path":"rotation"}},{"sampler":40,"target":{"node":54,"path":"rotation"}},{"sampler":41,"target":{"node":55,"path":"rotation"}},{"sampler":42,"target":{"node":57,"path":"rotation"}},{"sampler":43,"target":{"node":58,"path":"rotation"}},{"sampler":44,"target":{"node":59,"path":"rotation"}},{"sampler":45,"target":{"node":60,"path":"rotation"}},{"sampler":46,"target":{"node":61,"path":"rotation"}},{"sampler":47,"target":{"node":32,"path":"rotation"}},{"sampler":48,"target":{"node":62,"path":"rotation"}},{"sampler":49,"target":{"node":33,"path":"rotation"}},{"sampler":50,"target":{"node":50,"path":"rotation"}},{"sampler":51,"target":{"node":51,"path":"rotation"}}]},{"name":"DanceCombo","samplers":[{"input":61,"output":62},{"input":61,"output":63},{"input":64,"output":65},{"input":61,"output":66},{"input":64,"output":67},{"input":64,"output":68},{"input":64,"output":69},{"input":61,"output":70},{"input":64,"output":71},{"input":64,"output":72},{"input":64,"output":73},{"input":64,"output":74},{"input":64,"output":75},{"input":61,"output":76},{"input":61,"output":77},{"input":61,"output":78},{"input":61,"output":79},{"input":61,"output":80},{"input":64,"output":81},{"input":64,"output":82},{"input":64,"output":83},{"input":64,"output":84},{"input":64,"output":85},{"input":64,"output":86},{"input":61,"output":87},{"input":64,"output":88},{"input":64,"output":89},{"input":64,"output":90},{"input":64,"output":91},{"input":64,"output":92},{"input":61,"output":93},{"input":64,"output":94},{"input":61,"output":95},{"input":61,"output":96},{"input":61,"output":97},{"input":61,"output":98},{"input":61,"output":99},{"input":61,"output":100},{"input":61,"output":101},{"input":61,"output":102},{"input":61,"output":103},{"input":61,"output":104}],"channels":[{"sampler":0,"target":{"node":2,"path":"translation"}},{"sampler":1,"target":{"node":2,"path":"rotation"}},{"sampler":2,"target":{"node":2,"path":"scale"}},{"sampler":3,"target":{"node":3,"path":"rotation"}},{"sampler":4,"target":{"node":34,"path":"rotation"}},{"sampler":5,"target":{"node":35,"path":"rotation"}},{"sampler":6,"target":{"node":40,"path":"rotation"}},{"sampler":7,"target":{"node":4,"path":"rotation"}},{"sampler":8,"target":{"node":43,"path":"rotation"}},{"sampler":9,"target":{"node":44,"path":"rotation"}},{"sampler":10,"target":{"node":46,"path":"rotation"}},{"sampler":11,"target":{"node":47,"path":"rotation"}},{"sampler":12,"target":{"node":48,"path":"rotation"}},{"sampler":13,"target":{"node":6,"path":"rotation"}},{"sampler":14,"target":{"node":7,"path":"rotation"}},{"sampler":15,"target":{"node":5,"path":"rotation"}},{"sampler":16,"target":{"node":8,"path":"rotation"}},{"sampler":17,"target":{"node":9,"path":"rotation"}},{"sampler":18,"target":{"node":10,"path":"rotation"}},{"sampler":19,"target":{"node":11,"path":"rotation"}},{"sampler":20,"target":{"node":12,"path":"rotation"}},{"sampler":21,"target":{"node":14,"path":"rotation"}},{"sampler":22,"target":{"node":15,"path":"rotation"}},{"sampler":23,"target":{"node":16,"path":"rotation"}},{"sampler":24,"target":{"node":30,"path":"rotation"}},{"sampler":25,"target":{"node":18,"path":"rotation"}},{"sampler":26,"target":{"node":19,"path":"rotation"}},{"sampler":27,"target":{"node":22,"path":"rotation"}},{"sampler":28,"target":{"node":26,"path":"rotation"}},{"sampler":29,"target":{"node":27,"path":"rotation"}},{"sampler":30,"target":{"node":31,"path":"rotation"}},{"sampler":31,"target":{"node":28,"path":"rotation"}},{"sampler":32,"target":{"node":54,"path":"rotation"}},{"sampler":33,"target":{"node":55,"path":"rotation"}},{"sampler":34,"target":{"node":57,"path":"rotation"}},{"sampler":35,"target":{"node":58,"path":"rotation"}},{"sampler":36,"target":{"node":59,"path":"rotation"}},{"sampler":37,"target":{"node":60,"path":"rotation"}},{"sampler":38,"target":{"node":61,"path":"rotation"}},{"sampler":39,"target":{"node":32,"path":"rotation"}},{"sampler":40,"target":{"node":62,"path":"rotation"}},{"sampler":41,"target":{"node":33,"path":"rotation"}}]},{"name":"ResultPose","samplers":[{"input":105,"output":106},{"input":105,"output":107},{"input":108,"output":109},{"input":105,"output":110},{"input":108,"output":111},{"input":108,"output":112},{"input":108,"output":113},{"input":108,"output":114},{"input":108,"output":115},{"input":108,"output":116},{"input":108,"output":117},{"input":105,"output":118},{"input":108,"output":119},{"input":108,"output":120},{"input":108,"output":121},{"input":108,"output":122},{"input":108,"output":123},{"input":105,"output":124},{"input":105,"output":125},{"input":105,"output":126},{"input":105,"output":127},{"input":105,"output":128},{"input":108,"output":129},{"input":108,"output":130},{"input":108,"output":131},{"input":108,"output":132},{"input":108,"output":133},{"input":108,"output":134},{"input":108,"output":135},{"input":105,"output":136},{"input":108,"output":137},{"input":108,"output":138},{"input":108,"output":139},{"input":108,"output":140},{"input":108,"output":141},{"input":108,"output":142},{"input":105,"output":143},{"input":108,"output":144},{"input":105,"output":145},{"input":105,"output":146},{"input":105,"output":147},{"input":105,"output":148},{"input":105,"output":149},{"input":105,"output":150},{"input":105,"output":151},{"input":108,"output":152},{"input":105,"output":153},{"input":105,"output":154},{"input":105,"output":155},{"input":108,"output":156}],"channels":[{"sampler":0,"target":{"node":2,"path":"translation"}},{"sampler":1,"target":{"node":2,"path":"rotation"}},{"sampler":2,"target":{"node":2,"path":"scale"}},{"sampler":3,"target":{"node":3,"path":"rotation"}},{"sampler":4,"target":{"node":52,"path":"rotation"}},{"sampler":5,"target":{"node":34,"path":"rotation"}},{"sampler":6,"target":{"node":35,"path":"rotation"}},{"sampler":7,"target":{"node":36,"path":"rotation"}},{"sampler":8,"target":{"node":38,"path":"rotation"}},{"sampler":9,"target":{"node":39,"path":"rotation"}},{"sampler":10,"target":{"node":40,"path":"rotation"}},{"sampler":11,"target":{"node":4,"path":"rotation"}},{"sampler":12,"target":{"node":42,"path":"rotation"}},{"sampler":13,"target":{"node":43,"path":"rotation"}},{"sampler":14,"target":{"node":46,"path":"rotation"}},{"sampler":15,"target":{"node":47,"path":"rotation"}},{"sampler":16,"target":{"node":48,"path":"rotation"}},{"sampler":17,"target":{"node":6,"path":"rotation"}},{"sampler":18,"target":{"node":7,"path":"rotation"}},{"sampler":19,"target":{"node":5,"path":"rotation"}},{"sampler":20,"target":{"node":8,"path":"rotation"}},{"sampler":21,"target":{"node":9,"path":"rotation"}},{"sampler":22,"target":{"node":10,"path":"rotation"}},{"sampler":23,"target":{"node":10,"path":"scale"}},{"sampler":24,"target":{"node":11,"path":"rotation"}},{"sampler":25,"target":{"node":12,"path":"rotation"}},{"sampler":26,"target":{"node":14,"path":"rotation"}},{"sampler":27,"target":{"node":15,"path":"rotation"}},{"sampler":28,"target":{"node":16,"path":"rotation"}},{"sampler":29,"target":{"node":30,"path":"rotation"}},{"sampler":30,"target":{"node":18,"path":"rotation"}},{"sampler":31,"target":{"node":19,"path":"rotation"}},{"sampler":32,"target":{"node":22,"path":"rotation"}},{"sampler":33,"target":{"node":24,"path":"rotation"}},{"sampler":34,"target":{"node":26,"path":"rotation"}},{"sampler":35,"target":{"node":27,"path":"rotation"}},{"sampler":36,"target":{"node":31,"path":"rotation"}},{"sampler":37,"target":{"node":28,"path":"rotation"}},{"sampler":38,"target":{"node":54,"path":"rotation"}},{"sampler":39,"target":{"node":55,"path":"rotation"}},{"sampler":40,"target":{"node":57,"path":"rotation"}},{"sampler":41,"target":{"node":58,"path":"rotation"}},{"sampler":42,"target":{"node":59,"path":"rotation"}},{"sampler":43,"target":{"node":60,"path":"rotation"}},{"sampler":44,"target":{"node":61,"path":"rotation"}},{"sampler":45,"target":{"node":32,"path":"translation"}},{"sampler":46,"target":{"node":32,"path":"rotation"}},{"sampler":47,"target":{"node":62,"path":"rotation"}},{"sampler":48,"target":{"node":33,"path":"rotation"}},{"sampler":49,"target":{"node":50,"path":"rotation"}}]}],"nodes":[{"name":"RootNode","translation":[0,0,0],"rotation":[0,0,0,1],"scale":[1,1,1],"children":[1,2]},{"name":"mesh_uv.obj","translation":[0,0,0],"rotation":[0,0,0,1],"scale":[100,100,100],"mesh":0,"skin":0},{"name":"Hips","translation":[0.0000583099973,0.66493994,0.000757450005],"rotation":[-0.0318106562,0.0373564214,0.0243809186,0.998497963],"scale":[100,100,100],"children":[3]},{"name":"Spine","translation":[6.13825657e-11,0.00119054853,1.34535549e-10],"rotation":[0.993144274,-0.0793987215,-0.0434783623,-0.0739590526],"scale":[0.999997616,0.999999762,0.999998212],"children":[4,57,60]},{"name":"Spine1","translation":[-0.000180102943,-0.00116251223,0.000183117809],"rotation":[0.993143737,-0.0793993995,-0.0434906259,0.073958464],"scale":[0.999999702,1.00000012,0.999998868],"children":[5]},{"name":"Spine2","translation":[5.15666621e-10,0.00119054818,-2.90295898e-10],"rotation":[-0.000190763487,0.00394162955,0.0043320125,0.999982834],"scale":[1,0.99999994,1.00000012],"children":[6,30,54]},{"name":"LeftShoulder","translation":[0.000387909502,0.00159651518,0.0000173551052],"rotation":[-0.465993732,-0.4667615,-0.556119144,0.505682707],"scale":[1,1.00000036,1.00000012],"children":[7]},{"name":"LeftArm","translation":[7.48640705e-9,0.00149787159,4.04928202e-10],"rotation":[-0.00000152509199,-0.349277407,0.00000105393485,0.937019348],"scale":[0.999999464,0.99999994,1.00000048],"children":[8]},{"name":"LeftForeArm","translation":[9.45021039e-9,0.0021288842,-7.11582171e-9],"rotation":[0.00000138132145,0.061385598,-0.00000106776247,0.998114109],"scale":[0.999999762,1,1.00000036],"children":[9]},{"name":"LeftHand","translation":[1.02622302e-8,0.00209044828,-5.88774984e-9],"rotation":[-0.111878224,-0.199881554,0.139864817,0.963311195],"scale":[1.00000167,0.999999583,0.999998629],"children":[10,14,18,22,26]},{"name":"LeftHandThumb1","translation":[-0.000135189868,0.000238388442,-0.000271220983],"rotation":[-0.439892024,-0.278347135,-0.0230205003,0.853515029],"scale":[1.00000072,1.00000203,0.999997199],"children":[11]},{"name":"LeftHandThumb2","translation":[-2.57590949e-10,0.000327272079,4.30774777e-10],"rotation":[0.0443128981,-0.0606995076,0.0310330782,0.996688962],"scale":[0.999999821,1.00000012,1.00000012],"children":[12]},{"name":"LeftHandThumb3","translation":[1.80310034e-9,0.000308340241,1.41856915e-9],"rotation":[-0.0244249254,0.0607634373,-0.0273619965,0.997478068],"scale":[1.00000036,1,0.999999642],"children":[13]},{"name":"LeftHandThumb4","translation":[1.42029027e-10,0.000235544052,9.63533142e-10],"rotation":[7.87863996e-8,-0.00000243520071,2.39110842e-9,1],"scale":[1,1,1]},{"name":"LeftHandIndex1","translation":[0.000156255308,0.000676166499,-0.000149701358],"rotation":[-0.138322413,-0.0421636514,-0.058445923,0.987761736],"scale":[1,1.00000143,0.999998629],"children":[15]},{"name":"LeftHandIndex2","translation":[1.26430685e-10,0.000263921334,-1.17515886e-9],"rotation":[-0.00442451332,-0.0882611573,0.066988267,0.993832469],"scale":[1.00000048,0.999999881,0.999999583],"children":[16]},{"name":"LeftHandIndex3","translation":[2.68560341e-10,0.00021303918,-1.46983636e-9],"rotation":[-0.03678222,-0.0825998187,0.046660617,0.994810104],"scale":[1,1.00000036,0.999999523],"children":[17]},{"name":"LeftHandIndex4","translation":[1.22737376e-9,0.00022911554,-1.88126278e-10],"rotation":[-2.01058299e-7,-0.0000035111143,-4.71881592e-8,1],"scale":[1,1,1]},{"name":"LeftHandMiddle1","translation":[0.000120536562,0.000707414758,0.0000700168748],"rotation":[-0.00168485672,-0.0343874395,0.0375255905,0.998702407],"scale":[1.00000036,1,0.99999994],"children":[19]},{"name":"LeftHandMiddle2","translation":[-2.7301944e-10,0.000266496907,-5.40654244e-10],"rotation":[-0.142402232,-0.111906886,0.0302764103,0.982996345],"scale":[1.00000024,1.00000131,0.99999845],"children":[20]},{"name":"LeftHandMiddle3","translation":[1.34106637e-9,0.00025713729,-7.14738602e-10],"rotation":[0.0149270585,-0.0127867395,0.0166065507,0.999668896],"scale":[1,0.999999762,1.00000012],"children":[21]},{"name":"LeftHandMiddle4","translation":[4.51264824e-11,0.000209644335,-7.34756478e-10],"rotation":[0.00000201896069,0.00000500635451,-0.00000352983488,1],"scale":[1,1,1]},{"name":"LeftHandRing1","translation":[-0.0000332250384,0.000702054705,0.00021140711],"rotation":[-0.0509145074,-0.0373169482,0.0030915495,0.998000801],"scale":[1.00000012,1.00000048,0.999999344],"children":[23]},{"name":"LeftHandRing2","translation":[3.71744219e-10,0.000208397236,-1.12770782e-9],"rotation":[-0.0449988134,-0.00329742185,-0.0267854631,0.998622417],"scale":[0.99999994,1.00000048,0.999999523],"children":[24]},{"name":"LeftHandRing3","translation":[3.40275308e-10,0.0001921644,-1.22290544e-9],"rotation":[0.0542368256,-0.0313271321,0.0636885017,0.996002376],"scale":[1.00000036,0.999999285,1.00000036],"children":[25]},{"name":"LeftHandRing4","translation":[1.51819918e-10,0.000234585721,-9.18126186e-10],"rotation":[0.00000143679347,9.95079859e-7,-0.00000247960315,1],"scale":[1,1,1]},{"name":"LeftHandPinky1","translation":[-0.000108373933,0.000618789054,0.000139486903],"rotation":[0.118310362,0.0793323144,0.00114338438,0.989801884],"scale":[0.999999702,0.999998987,1.00000131],"children":[27]},{"name":"LeftHandPinky2","translation":[1.24470112e-9,0.000218414134,-1.16121002e-9],"rotation":[-0.0431405269,-0.0630154833,0.0525722429,0.99569279],"scale":[1.00000048,1.00000012,0.999999464],"children":[28]},{"name":"LeftHandPinky3","translation":[-1.0674589e-9,0.000179399009,-9.10064024e-10],"rotation":[-0.0421918593,-0.0135222794,-0.0150523046,0.998904586],"scale":[0.99999994,1.00000048,0.999999583],"children":[29]},{"name":"LeftHandPinky4","translation":[6.66214361e-10,0.000202890573,-1.1333402e-9],"rotation":[-1.43942955e-7,-0.00000120361017,-9.48189722e-8,1],"scale":[1,0.99999994,1]},{"name":"RightShoulder","translation":[-0.000401807745,0.00161487632,-0.0000180232782],"rotation":[-0.481352746,0.482060969,0.491813511,0.54225105],"scale":[0.999999702,1.00000012,0.999999881],"children":[31]},{"name":"RightArm","translation":[8.15444778e-9,0.00166502199,-1.15644612e-10],"rotation":[-5.48261482e-7,0.328421801,7.70247823e-7,0.944531143],"scale":[0.999999642,1,1.00000036],"children":[32]},{"name":"RightForeArm","translation":[8.87300722e-9,0.00191762473,6.97324598e-9],"rotation":[6.425376e-7,0.0245032012,-2.60791012e-7,0.999699771],"scale":[1.00000012,1,0.999999881],"children":[33]},{"name":"RightHand","translation":[8.46750758e-9,0.00217839167,8.76258888e-9],"rotation":[0.191921219,-0.184737355,0.00883942842,0.963825822],"scale":[0.999998808,1.00000072,1.00000048],"children":[34,38,42,46,50]},{"name":"RightHandIndex1","translation":[-0.000126314684,0.000567816314,-0.0000801391434],"rotation":[-0.310617179,0.310391754,-0.0451586097,0.897292972],"scale":[1.0000006,0.999998391,1.00000083],"children":[35]},{"name":"RightHandIndex2","translation":[9.39065936e-10,0.000258746179,1.0488892e-9],"rotation":[0.0301314481,0.0835117698,-0.0958329961,0.991430223],"scale":[0.999999762,1.00000095,0.999999344],"children":[36]},{"name":"RightHandIndex3","translation":[9.75709624e-10,0.000207315083,5.06969078e-10],"rotation":[-0.0513921902,-0.0343473293,0.060754206,0.99623692],"scale":[1.00000024,0.999999166,1.0000006],"children":[37]},{"name":"RightHandIndex4","translation":[9.42054101e-10,0.000219739683,9.9144648e-10],"rotation":[-2.42342395e-7,-2.88294586e-7,1.24859454e-7,1],"scale":[1,1,1]},{"name":"RightHandMiddle1","translation":[-0.0000721385004,0.000720455719,0.0000418886812],"rotation":[-0.142960891,0.142672151,-0.020285368,0.979180932],"scale":[1.00000048,0.999999464,0.99999994],"children":[39]},{"name":"RightHandMiddle2","translation":[8.89213592e-10,0.000273879326,6.6866751e-10],"rotation":[-0.207080871,0.290803373,-0.153753698,0.921363533],"scale":[1.00000036,0.999999762,1],"children":[40]},{"name":"RightHandMiddle3","translation":[8.77580175e-10,0.000233841798,4.0905529e-10],"rotation":[0.0382056758,0.107229844,-0.10708762,0.987711668],"scale":[1.00000012,1.00000095,0.999998927],"children":[41]},{"name":"RightHandMiddle4","translation":[4.40081804e-10,0.000190302293,-2.33797676e-10],"rotation":[2.94834962e-7,-0.00000237588097,8.74207217e-7,1],"scale":[1,1,1]},{"name":"RightHandRing1","translation":[0.0000973943606,0.000623223896,0.0000455474546],"rotation":[-0.121208765,0.172484845,-0.156644017,0.964893818],"scale":[0.999999642,1.00000072,0.999999523],"children":[43]},{"name":"RightHandRing2","translation":[8.28018376e-10,0.000256774423,6.7458189e-10],"rotation":[-0.1678835,0.0588788055,0.0831395015,0.980528533],"scale":[1.00000095,0.999998748,1.00000048],"children":[44]},{"name":"RightHandRing3","translation":[1.00418462e-9,0.000228238176,9.70130309e-10],"rotation":[-0.0462516472,0.0254985485,0.0132586006,0.998516321],"scale":[1.00000024,0.999999702,1.00000012],"children":[45]},{"name":"RightHandRing4","translation":[8.32971858e-10,0.000225189651,1.03681075e-9],"rotation":[-2.77259772e-7,3.00738236e-7,2.11602924e-7,1],"scale":[1,1,1]},{"name":"RightHandPinky1","translation":[0.000169110383,0.000428975909,0.0000558903012],"rotation":[-0.194009379,0.260671884,-0.209008947,0.922347963],"scale":[0.999999821,1.0000006,0.999999583],"children":[47]},{"name":"RightHandPinky2","translation":[5.37816125e-10,0.00020764106,2.00413408e-10],"rotation":[0.104268149,-0.0766014829,0.0271299481,0.991223633],"scale":[0.999999404,1.00000036,1.00000024],"children":[48]},{"name":"RightHandPinky3","translation":[1.15421761e-9,0.000208912345,-5.73879944e-10],"rotation":[-0.120026298,0.0865367055,-0.0283179972,0.988586426],"scale":[1.0000006,0.999999642,0.999999702],"children":[49]},{"name":"RightHandPinky4","translation":[-6.90767332e-10,0.000229155266,6.23824437e-10],"rotation":[-1.33730637e-7,-4.51598794e-8,1.12135453e-7,1],"scale":[1,1,1]},{"name":"RightHandThumb1","translation":[-0.0000680380836,0.00000449678737,-0.0000631969233],"rotation":[-0.537915945,0.587597847,-0.213714764,0.565421283],"scale":[1.00000036,0.999997973,1.00000203],"children":[51]},{"name":"RightHandThumb2","translation":[-1.64968733e-10,0.000299604872,-1.0055492e-9],"rotation":[-0.0225064717,-0.0100303655,0.00617281767,0.9996773],"scale":[0.99999994,0.999999821,1.00000012],"children":[52]},{"name":"RightHandThumb3","translation":[2.23912444e-9,0.000282563851,-3.49847762e-10],"rotation":[-0.000906547299,-0.010430011,0.00435779523,0.999935687],"scale":[1,0.999999881,1.00000012],"children":[53]},{"name":"RightHandThumb4","translation":[1.27971289e-9,0.000232647915,-1.44580781e-9],"rotation":[8.96559982e-8,-0.00000462754269,0.00000284105363,1],"scale":[1,1,1]},{"name":"Neck","translation":[0.0000139006861,0.00160459196,6.66701453e-7],"rotation":[0.269281596,-0.0301863998,-0.0190067068,0.962400615],"scale":[1.00000024,0.999999762,0.999999821],"children":[55]},{"name":"Head","translation":[5.73931747e-9,0.00193789508,-3.96149868e-9],"rotation":[-0.221671537,0.00000115630587,0.00000157779937,0.975121379],"scale":[0.99999994,1.00000107,0.999998927],"children":[56]},{"name":"Head_top","translation":[3.53130392e-9,0.00458664261,-3.77977116e-9],"rotation":[4.99843456e-9,-1.691801e-10,-4.99708053e-9,1],"scale":[1,0.99999994,1]},{"name":"RightUpLeg","translation":[-0.00160234421,0.00251998915,0.0000948941961],"rotation":[-0.021576805,0.0770928189,-0.0623513721,0.994838417],"scale":[1.00000072,0.99999994,0.999999344],"children":[58]},{"name":"RightLeg","translation":[-1.49340762e-9,0.00201498461,-2.08728901e-9],"rotation":[4.94964354e-7,-0.0106440242,-8.73846684e-9,0.999943376],"scale":[0.999999881,1,1],"children":[59]},{"name":"RightFoot","translation":[-2.6962903e-9,0.00289181573,-2.83048474e-9],"rotation":[2.03118106e-10,-5.41049801e-8,2.68542095e-8,1],"scale":[1,1,1]},{"name":"LeftUpLeg","translation":[0.00178244547,0.00208797515,-0.00027801501],"rotation":[-0.0234706346,0.0466775037,-0.0616635233,0.996728599],"scale":[1.00000048,0.999999881,0.999999702],"children":[61]},{"name":"LeftLeg","translation":[-1.71402803e-9,0.00201185141,-1.99783101e-9],"rotation":[1.48306526e-7,0.0106912553,1.7559482e-7,0.999942839],"scale":[1.00000012,1,0.99999994],"children":[62]},{"name":"LeftFoot","translation":[-2.52273047e-9,0.0028912588,-2.81630519e-9],"rotation":[-1.59135205e-10,4.32433431e-8,-5.14998142e-8,1],"scale":[1,1,1]}],"scenes":[{"name":"Root Scene","nodes":[0]}],"scene":0,"extras":{"runtimeDerivation":{"hipsTranslationBaseline":"IdleSway","alignedAnimations":["DanceCombo","ResultPose"],"operation":"per-clip constant translation offset"}}}